<mxfile host="app.diagrams.net" modified="2023-12-26T02:35:26.370Z" agent="Mozilla/5.0 (Macintosh; Intel Mac OS X 10_15_7) AppleWebKit/537.36 (KHTML, like Gecko) Chrome/120.0.0.0 Safari/537.36" version="22.1.11" etag="y7r6xDUuufjQmUZoSsNN" type="github">
  <diagram name="第 1 页" id="KSuRPZ6ppdZNwyaohaDu">
    <mxGraphModel>
      <root>
        <mxCell id="0" />
        <mxCell id="1" parent="0" />
      </root>
    </mxGraphModel>
  </diagram>
</mxfile>
